<svg width="188" height="106" viewBox="0 0 188 106" fill="none" xmlns="http://www.w3.org/2000/svg">
<path d="M25.1999 1.40008C18.0999 3.20008 7.89992 8.50008 4.09992 12.4001C1.29992 15.3001 0.799924 16.6001 0.299924 22.8001C-0.800076 36.4001 3.59992 49.0001 13.0999 59.5001C15.6999 62.3001 19.4999 65.5001 21.4999 66.5001C24.2999 68.1001 24.9999 68.9001 24.4999 70.5001C21.8999 78.7001 20.8999 85.0001 21.4999 89.7001C21.9999 94.2001 22.6999 95.4001 25.7999 98.0001C40.1999 109.8 65.5999 107.7 76.1999 93.8001C82.8999 85.1001 88.9999 68.1001 88.9999 58.4001C88.9999 51.1001 84.7999 35.6001 80.6999 27.3001C70.0999 6.40008 47.7999 -3.99992 25.1999 1.40008Z" fill="white"/>
<path d="M138.6 1.6C120.1 6.1 107.3 20.6 101.4 43.7C98.2998 56 98.1998 60.6 100.9 70.4C105.6 87.4 112.2 97 122.7 102.2C128.9 105.2 130.2 105.5 139 105.5C147.1 105.5 149.3 105.1 154 102.9C157 101.5 160.9 99.1 162.7 97.6C167.8 93.3 168 84.8 163.5 70.4C163 68.9 163.5 68.1 165.4 67.2C173.1 63.7 182.7 51 186.2 39.7C187.9 34.1 188.2 31.1 187.7 24.1L187.2 15.5L182.9 11.7C171.8 1.8 154.3 -2.2 138.6 1.6Z" fill="white"/>
</svg>
